<svg height="512pt" viewBox="-153 0 512 512" width="512pt" xmlns="http://www.w3.org/2000/svg"><path d="m14.769531 423.382812c-8.15625 0-14.769531-6.609374-14.769531-14.765624v-246.15625c0-8.15625 6.613281-14.769532 14.769531-14.769532s14.769531 6.613282 14.769531 14.769532v246.15625c0 8.15625-6.613281 14.765624-14.769531 14.765624zm0 0" fill="#edeff9"/><path d="m192 423.382812c-8.15625 0-14.769531-6.609374-14.769531-14.765624v-246.15625c0-8.15625 6.613281-14.769532 14.769531-14.769532s14.769531 6.613282 14.769531 14.769532v246.15625c0 8.15625-6.613281 14.765624-14.769531 14.765624zm0 0" fill="#d1d6f2"/><path d="m103.382812 305.230469c-57.003906 0-103.382812 46.378906-103.382812 103.386719 0 57.003906 46.378906 103.382812 103.382812 103.382812 57.007813 0 103.386719-46.378906 103.386719-103.382812 0-57.007813-46.378906-103.386719-103.386719-103.386719zm0 0" fill="#7ed8f6"/><path d="m103.382812 359.382812c-27.144531 0-49.230468 22.085938-49.230468 49.234376 0 27.144531 22.085937 49.230468 49.230468 49.230468 27.148438 0 49.234376-22.085937 49.234376-49.230468 0-27.148438-22.085938-49.234376-49.234376-49.234376zm0 0" fill="#4895ff"/><path d="m204.203125 80.425781c-5.105469-22.492187-17.84375-42.90625-35.871094-57.476562-18.300781-14.800781-41.367187-22.949219-64.949219-22.949219-23.578124 0-46.644531 8.148438-64.949218 22.945312-18.027344 14.574219-30.761719 34.988282-35.867188 57.476563-1.703125 7.503906-2.566406 15.230469-2.566406 22.960937v59.078126c0 8.15625 6.613281 14.769531 14.769531 14.769531h9.847657c33.03125 0 62.121093-17.214844 78.765624-43.136719 16.648438 25.921875 45.738282 43.136719 78.769532 43.136719h9.847656c8.15625 0 14.769531-6.613281 14.769531-14.769531v-59.078126c0-7.730468-.863281-15.457031-2.566406-22.957031zm0 0" fill="#7ed8f6"/><path d="m103.382812 305.230469v206.769531c57.007813 0 103.386719-46.378906 103.386719-103.382812 0-57.007813-46.378906-103.386719-103.386719-103.386719zm0 0" fill="#6aa9ff"/><path d="m103.382812 359.382812v98.464844c27.148438 0 49.234376-22.085937 49.234376-49.230468 0-27.148438-22.085938-49.234376-49.234376-49.234376zm0 0" fill="#046eff"/><path d="m204.203125 80.425781c-5.105469-22.492187-17.84375-42.90625-35.871094-57.476562-18.300781-14.800781-41.367187-22.949219-64.949219-22.949219v134.09375c16.648438 25.921875 45.738282 43.136719 78.769532 43.136719h9.847656c8.15625 0 14.769531-6.613281 14.769531-14.769531v-59.078126c0-7.730468-.863281-15.457031-2.566406-22.957031zm0 0" fill="#6aa9ff"/></svg>